producent: USA
rodzaj: Dramat, Akcja
reżyseria: Simon West
fabula: Richard Wenk,Lewis John Carlino
premiera: 13 stycznia 2011 (Świat)
dlugosc: 92 min.



Arthur Bishop jest płatny mordercą, nie mającym litości dla swych ofiar. Dzięki
swoim brutalnym metodom uznawany jest za jednego z najlepszych w branży. Gdy
ginie jego przyjaciel, bierze pod swoje skrzydła jego syna i wspólnie idą
wymierzyć zemstę.

Jason Statham.........Arthur Bishop
Ben Foster...............Steve McKenna
Jeff Chase...............Burke



General
Format : AVI
Format/Info : Audio Video Interleave
File size : 1.41 GiB
Duration : 1h 28mn
Overall bit rate : 2 278 Kbps
Writing application : VirtualDubMod 1.5.10.2 (build 2540/release)
Writing library : VirtualDubMod build 2540/release

Video
ID : 0
Format : MPEG-4 Visual
Format profile : Advanced Simple@L5
Format settings, BVOP : Yes
Format settings, QPel : No
Format settings, GMC : No warppoints
Format settings, Matrix : Custom
Codec ID : XVID
Codec ID/Hint : XviD
Duration : 1h 28mn
Bit rate : 1 820 Kbps
Width : 720 pixels
Height : 304 pixels
Display aspect ratio : 2.35:1
Frame rate : 25.000 fps
Color space : YUV
Chroma subsampling : 4:2:0
Bit depth : 8 bits
Scan type : Progressive
Bits/(Pixel*Frame) : 0.333
Stream size : 1.13 GiB (80%)
Writing library : XviD 58

Audio
ID : 1
Format : AC-3
Format/Info : Audio Coding 3
Mode extension : CM (complete main)
Codec ID : 2000
Duration : 1h 28mn
Bit rate mode : Constant
Bit rate : 448 Kbps
Channel(s) : 6 channels
Channel positions : Front: L C R, Side: L R, LFE
Sampling rate : 48.0 KHz
Bit depth : 16 bits
Stream size : 284 MiB (20%)
Alignment : Split accross interleaves
Interleave, duration : 40 ms (1.00 video frame)
Interleave, preload duration : 500 ms
Video Source:: ....ELEKTRI4KA
Audio Source:: ....Own
Language::English